<mxfile host="app.diagrams.net" agent="Mozilla/5.0 (Windows NT 10.0; Win64; x64) AppleWebKit/537.36 (KHTML, like Gecko) Chrome/128.0.0.0 Safari/537.36 OPR/114.0.0.0" version="24.8.6">
  <diagram id="7bYfDr-sznIWWIKafMwo" name="Page-1">
    <mxGraphModel dx="6978" dy="2044" grid="1" gridSize="10" guides="1" tooltips="1" connect="1" arrows="1" fold="1" page="1" pageScale="1" pageWidth="3300" pageHeight="4681" math="0" shadow="0">
      <root>
        <mxCell id="0" />
        <mxCell id="1" parent="0" />
        <mxCell id="S7kx4O2pw9i-sN-aWmeE-4" style="edgeStyle=orthogonalEdgeStyle;rounded=0;orthogonalLoop=1;jettySize=auto;html=1;exitX=1;exitY=0.5;exitDx=0;exitDy=0;entryX=0;entryY=0.5;entryDx=0;entryDy=0;" parent="1" source="S7kx4O2pw9i-sN-aWmeE-1" target="S7kx4O2pw9i-sN-aWmeE-3" edge="1">
          <mxGeometry relative="1" as="geometry" />
        </mxCell>
        <mxCell id="S7kx4O2pw9i-sN-aWmeE-5" style="edgeStyle=orthogonalEdgeStyle;rounded=0;orthogonalLoop=1;jettySize=auto;html=1;exitX=0;exitY=0.5;exitDx=0;exitDy=0;entryX=1;entryY=0.5;entryDx=0;entryDy=0;" parent="1" source="S7kx4O2pw9i-sN-aWmeE-1" target="S7kx4O2pw9i-sN-aWmeE-2" edge="1">
          <mxGeometry relative="1" as="geometry" />
        </mxCell>
        <mxCell id="S7kx4O2pw9i-sN-aWmeE-1" value="Курьерский режим" style="rounded=1;whiteSpace=wrap;html=1;fillColor=#f8cecc;strokeColor=#b85450;" parent="1" vertex="1">
          <mxGeometry x="-80" y="1630" width="160" height="60" as="geometry" />
        </mxCell>
        <mxCell id="S7kx4O2pw9i-sN-aWmeE-10" style="edgeStyle=none;rounded=0;orthogonalLoop=1;jettySize=auto;html=1;exitX=0;exitY=0.5;exitDx=0;exitDy=0;entryX=1;entryY=0.5;entryDx=0;entryDy=0;fillColor=#dae8fc;strokeColor=#6c8ebf;" parent="1" source="S7kx4O2pw9i-sN-aWmeE-2" edge="1" target="T8m-kI0A9EKhn8hLUyai-1">
          <mxGeometry relative="1" as="geometry">
            <mxPoint x="-440" y="1660" as="targetPoint" />
          </mxGeometry>
        </mxCell>
        <mxCell id="S7kx4O2pw9i-sN-aWmeE-11" style="edgeStyle=none;rounded=0;orthogonalLoop=1;jettySize=auto;html=1;exitX=0;exitY=0;exitDx=0;exitDy=0;fillColor=#dae8fc;strokeColor=#6c8ebf;entryX=0.5;entryY=1;entryDx=0;entryDy=0;" parent="1" source="S7kx4O2pw9i-sN-aWmeE-2" edge="1" target="T8m-kI0A9EKhn8hLUyai-10">
          <mxGeometry relative="1" as="geometry">
            <mxPoint x="-390" y="1600" as="targetPoint" />
          </mxGeometry>
        </mxCell>
        <mxCell id="S7kx4O2pw9i-sN-aWmeE-2" value="Выключен" style="rounded=1;whiteSpace=wrap;html=1;fillColor=#dae8fc;strokeColor=#6c8ebf;" parent="1" vertex="1">
          <mxGeometry x="-320" y="1630" width="160" height="60" as="geometry" />
        </mxCell>
        <mxCell id="S7kx4O2pw9i-sN-aWmeE-6" style="rounded=0;orthogonalLoop=1;jettySize=auto;html=1;exitX=1;exitY=0;exitDx=0;exitDy=0;entryX=0;entryY=1;entryDx=0;entryDy=0;fillColor=#ffe6cc;strokeColor=#d79b00;" parent="1" source="S7kx4O2pw9i-sN-aWmeE-3" target="S7kx4O2pw9i-sN-aWmeE-9" edge="1">
          <mxGeometry relative="1" as="geometry">
            <mxPoint x="400" y="1560" as="targetPoint" />
          </mxGeometry>
        </mxCell>
        <mxCell id="S7kx4O2pw9i-sN-aWmeE-7" style="edgeStyle=none;rounded=0;orthogonalLoop=1;jettySize=auto;html=1;exitX=1;exitY=0.5;exitDx=0;exitDy=0;entryX=0;entryY=0.5;entryDx=0;entryDy=0;fillColor=#ffe6cc;strokeColor=#d79b00;" parent="1" source="S7kx4O2pw9i-sN-aWmeE-3" edge="1" target="T8m-kI0A9EKhn8hLUyai-17">
          <mxGeometry relative="1" as="geometry">
            <mxPoint x="440" y="1660" as="targetPoint" />
          </mxGeometry>
        </mxCell>
        <mxCell id="S7kx4O2pw9i-sN-aWmeE-8" style="edgeStyle=none;rounded=0;orthogonalLoop=1;jettySize=auto;html=1;exitX=1;exitY=1;exitDx=0;exitDy=0;entryX=0.5;entryY=0;entryDx=0;entryDy=0;fillColor=#ffe6cc;strokeColor=#d79b00;" parent="1" source="S7kx4O2pw9i-sN-aWmeE-3" edge="1" target="T8m-kI0A9EKhn8hLUyai-12">
          <mxGeometry relative="1" as="geometry">
            <mxPoint x="400" y="1760" as="targetPoint" />
          </mxGeometry>
        </mxCell>
        <mxCell id="S7kx4O2pw9i-sN-aWmeE-3" value="Влючён" style="rounded=1;whiteSpace=wrap;html=1;fillColor=#ffe6cc;strokeColor=#d79b00;" parent="1" vertex="1">
          <mxGeometry x="160" y="1630" width="160" height="60" as="geometry" />
        </mxCell>
        <mxCell id="S7kx4O2pw9i-sN-aWmeE-13" style="edgeStyle=none;rounded=0;orthogonalLoop=1;jettySize=auto;html=1;exitX=1;exitY=0.5;exitDx=0;exitDy=0;entryX=0.5;entryY=1;entryDx=0;entryDy=0;fillColor=#ffe6cc;strokeColor=#d79b00;" parent="1" source="S7kx4O2pw9i-sN-aWmeE-9" edge="1" target="T8m-kI0A9EKhn8hLUyai-44">
          <mxGeometry relative="1" as="geometry">
            <mxPoint x="770" y="970" as="targetPoint" />
          </mxGeometry>
        </mxCell>
        <mxCell id="S7kx4O2pw9i-sN-aWmeE-15" style="edgeStyle=none;rounded=0;orthogonalLoop=1;jettySize=auto;html=1;exitX=1;exitY=0.5;exitDx=0;exitDy=0;entryX=0;entryY=0.5;entryDx=0;entryDy=0;fillColor=#ffe6cc;strokeColor=#d79b00;" parent="1" source="S7kx4O2pw9i-sN-aWmeE-9" edge="1" target="T8m-kI0A9EKhn8hLUyai-25">
          <mxGeometry relative="1" as="geometry">
            <mxPoint x="730" y="1280" as="targetPoint" />
          </mxGeometry>
        </mxCell>
        <mxCell id="S7kx4O2pw9i-sN-aWmeE-9" value="Расчёт стоимости" style="rounded=1;whiteSpace=wrap;html=1;fillColor=#ffe6cc;strokeColor=#d79b00;" parent="1" vertex="1">
          <mxGeometry x="470" y="1220" width="160" height="60" as="geometry" />
        </mxCell>
        <mxCell id="T8m-kI0A9EKhn8hLUyai-1" value="Яндекс.Маршруты 1.0" style="rounded=1;whiteSpace=wrap;html=1;fillColor=#dae8fc;strokeColor=#6c8ebf;" vertex="1" parent="1">
          <mxGeometry x="-860" y="1610" width="190" height="100" as="geometry" />
        </mxCell>
        <mxCell id="T8m-kI0A9EKhn8hLUyai-2" value="Переключатель&lt;br&gt;&quot;курьерский режим&quot;" style="rounded=1;whiteSpace=wrap;html=1;fillColor=#dae8fc;strokeColor=#6c8ebf;" vertex="1" parent="1">
          <mxGeometry x="-455" y="1370" width="120" height="60" as="geometry" />
        </mxCell>
        <mxCell id="T8m-kI0A9EKhn8hLUyai-4" value="Светло-серый цвет" style="rounded=1;whiteSpace=wrap;html=1;fillColor=#dae8fc;strokeColor=#6c8ebf;" vertex="1" parent="1">
          <mxGeometry x="-455" y="1190" width="120" height="60" as="geometry" />
        </mxCell>
        <mxCell id="T8m-kI0A9EKhn8hLUyai-6" value="" style="endArrow=classic;html=1;rounded=0;entryX=0.5;entryY=1;entryDx=0;entryDy=0;exitX=0.5;exitY=0;exitDx=0;exitDy=0;fillColor=#dae8fc;strokeColor=#6c8ebf;" edge="1" parent="1" source="T8m-kI0A9EKhn8hLUyai-2" target="T8m-kI0A9EKhn8hLUyai-4">
          <mxGeometry width="50" height="50" relative="1" as="geometry">
            <mxPoint x="-475" y="1420" as="sourcePoint" />
            <mxPoint x="-425" y="1370" as="targetPoint" />
          </mxGeometry>
        </mxCell>
        <mxCell id="T8m-kI0A9EKhn8hLUyai-8" value="&lt;font style=&quot;font-size: 20px;&quot;&gt;Удобство поддерживаемости, масштабирования, рефакторинга, чтения и тд при росте проекта&lt;/font&gt;" style="text;html=1;align=center;verticalAlign=middle;whiteSpace=wrap;rounded=0;" vertex="1" parent="1">
          <mxGeometry x="-1340" y="1585" width="350" height="150" as="geometry" />
        </mxCell>
        <mxCell id="T8m-kI0A9EKhn8hLUyai-9" value="" style="endArrow=none;dashed=1;html=1;dashPattern=1 3;strokeWidth=2;rounded=0;exitX=1;exitY=0.5;exitDx=0;exitDy=0;entryX=0;entryY=0.5;entryDx=0;entryDy=0;" edge="1" parent="1" source="T8m-kI0A9EKhn8hLUyai-8" target="T8m-kI0A9EKhn8hLUyai-1">
          <mxGeometry width="50" height="50" relative="1" as="geometry">
            <mxPoint x="-740" y="1700" as="sourcePoint" />
            <mxPoint x="-690" y="1650" as="targetPoint" />
          </mxGeometry>
        </mxCell>
        <mxCell id="T8m-kI0A9EKhn8hLUyai-10" value="Поле ввода времени" style="rounded=1;whiteSpace=wrap;html=1;fillColor=#dae8fc;strokeColor=#6c8ebf;" vertex="1" parent="1">
          <mxGeometry x="-460" y="1530" width="130" height="70" as="geometry" />
        </mxCell>
        <mxCell id="T8m-kI0A9EKhn8hLUyai-11" value="" style="endArrow=classic;html=1;rounded=0;entryX=0.5;entryY=1;entryDx=0;entryDy=0;exitX=0.5;exitY=0;exitDx=0;exitDy=0;fillColor=#dae8fc;strokeColor=#6c8ebf;" edge="1" parent="1" source="T8m-kI0A9EKhn8hLUyai-10" target="T8m-kI0A9EKhn8hLUyai-2">
          <mxGeometry width="50" height="50" relative="1" as="geometry">
            <mxPoint x="-450" y="1500" as="sourcePoint" />
            <mxPoint x="-400" y="1450" as="targetPoint" />
          </mxGeometry>
        </mxCell>
        <mxCell id="T8m-kI0A9EKhn8hLUyai-12" value="Поле ввода времени" style="rounded=1;whiteSpace=wrap;html=1;fillColor=#ffe6cc;strokeColor=#d79b00;" vertex="1" parent="1">
          <mxGeometry x="330" y="1770" width="130" height="70" as="geometry" />
        </mxCell>
        <mxCell id="T8m-kI0A9EKhn8hLUyai-13" value="Переключатель&lt;br&gt;&quot;курьерский режим&quot;" style="rounded=1;whiteSpace=wrap;html=1;fillColor=#ffe6cc;strokeColor=#d79b00;" vertex="1" parent="1">
          <mxGeometry x="335" y="1960" width="120" height="60" as="geometry" />
        </mxCell>
        <mxCell id="T8m-kI0A9EKhn8hLUyai-14" value="" style="endArrow=classic;html=1;rounded=0;exitX=0.5;exitY=1;exitDx=0;exitDy=0;entryX=0.5;entryY=0;entryDx=0;entryDy=0;fillColor=#ffe6cc;strokeColor=#d79b00;" edge="1" parent="1" source="T8m-kI0A9EKhn8hLUyai-12" target="T8m-kI0A9EKhn8hLUyai-13">
          <mxGeometry width="50" height="50" relative="1" as="geometry">
            <mxPoint x="180" y="1830" as="sourcePoint" />
            <mxPoint x="230" y="1780" as="targetPoint" />
          </mxGeometry>
        </mxCell>
        <mxCell id="T8m-kI0A9EKhn8hLUyai-15" value="Синий цвет" style="rounded=1;whiteSpace=wrap;html=1;fillColor=#ffe6cc;strokeColor=#d79b00;" vertex="1" parent="1">
          <mxGeometry x="335" y="2130" width="120" height="60" as="geometry" />
        </mxCell>
        <mxCell id="T8m-kI0A9EKhn8hLUyai-16" value="" style="endArrow=classic;html=1;rounded=0;entryX=0.5;entryY=0;entryDx=0;entryDy=0;exitX=0.5;exitY=1;exitDx=0;exitDy=0;fillColor=#ffe6cc;strokeColor=#d79b00;" edge="1" parent="1" source="T8m-kI0A9EKhn8hLUyai-13" target="T8m-kI0A9EKhn8hLUyai-15">
          <mxGeometry width="50" height="50" relative="1" as="geometry">
            <mxPoint x="180" y="2010" as="sourcePoint" />
            <mxPoint x="230" y="1960" as="targetPoint" />
          </mxGeometry>
        </mxCell>
        <mxCell id="T8m-kI0A9EKhn8hLUyai-17" value="Блокируется режим &quot;оптимальный&quot; и &quot;быстрый&quot;" style="rounded=1;whiteSpace=wrap;html=1;fillColor=#ffe6cc;strokeColor=#d79b00;" vertex="1" parent="1">
          <mxGeometry x="540" y="1630" width="120" height="60" as="geometry" />
        </mxCell>
        <mxCell id="T8m-kI0A9EKhn8hLUyai-18" value="Блокируется выбор такси и каршеринга" style="rounded=1;whiteSpace=wrap;html=1;fillColor=#ffe6cc;strokeColor=#d79b00;" vertex="1" parent="1">
          <mxGeometry x="790" y="1630" width="130" height="60" as="geometry" />
        </mxCell>
        <mxCell id="T8m-kI0A9EKhn8hLUyai-19" value="" style="endArrow=classic;html=1;rounded=0;entryX=0;entryY=0.5;entryDx=0;entryDy=0;exitX=1;exitY=0.5;exitDx=0;exitDy=0;fillColor=#ffe6cc;strokeColor=#d79b00;" edge="1" parent="1" source="T8m-kI0A9EKhn8hLUyai-17" target="T8m-kI0A9EKhn8hLUyai-18">
          <mxGeometry width="50" height="50" relative="1" as="geometry">
            <mxPoint x="670" y="1750" as="sourcePoint" />
            <mxPoint x="720" y="1700" as="targetPoint" />
          </mxGeometry>
        </mxCell>
        <mxCell id="T8m-kI0A9EKhn8hLUyai-20" value="Светло-серый цвет иконок" style="rounded=1;whiteSpace=wrap;html=1;fillColor=#ffe6cc;strokeColor=#d79b00;" vertex="1" parent="1">
          <mxGeometry x="670" y="1790" width="120" height="60" as="geometry" />
        </mxCell>
        <mxCell id="T8m-kI0A9EKhn8hLUyai-21" value="" style="endArrow=classic;html=1;rounded=0;exitX=0.5;exitY=1;exitDx=0;exitDy=0;entryX=0.5;entryY=0;entryDx=0;entryDy=0;fillColor=#ffe6cc;strokeColor=#d79b00;" edge="1" parent="1" source="T8m-kI0A9EKhn8hLUyai-17" target="T8m-kI0A9EKhn8hLUyai-20">
          <mxGeometry width="50" height="50" relative="1" as="geometry">
            <mxPoint x="670" y="1750" as="sourcePoint" />
            <mxPoint x="720" y="1700" as="targetPoint" />
          </mxGeometry>
        </mxCell>
        <mxCell id="T8m-kI0A9EKhn8hLUyai-22" value="" style="endArrow=classic;html=1;rounded=0;exitX=0.5;exitY=1;exitDx=0;exitDy=0;entryX=0.5;entryY=0;entryDx=0;entryDy=0;fillColor=#ffe6cc;strokeColor=#d79b00;" edge="1" parent="1" source="T8m-kI0A9EKhn8hLUyai-18" target="T8m-kI0A9EKhn8hLUyai-20">
          <mxGeometry width="50" height="50" relative="1" as="geometry">
            <mxPoint x="670" y="1750" as="sourcePoint" />
            <mxPoint x="720" y="1700" as="targetPoint" />
          </mxGeometry>
        </mxCell>
        <mxCell id="T8m-kI0A9EKhn8hLUyai-23" value="Иконки недоступны для выбора" style="rounded=1;whiteSpace=wrap;html=1;fillColor=#ffe6cc;strokeColor=#d79b00;" vertex="1" parent="1">
          <mxGeometry x="1050" y="1630" width="120" height="60" as="geometry" />
        </mxCell>
        <mxCell id="T8m-kI0A9EKhn8hLUyai-24" value="" style="endArrow=classic;html=1;rounded=0;entryX=0;entryY=0.5;entryDx=0;entryDy=0;exitX=1;exitY=0.5;exitDx=0;exitDy=0;fillColor=#ffe6cc;strokeColor=#d79b00;" edge="1" parent="1" source="T8m-kI0A9EKhn8hLUyai-18" target="T8m-kI0A9EKhn8hLUyai-23">
          <mxGeometry width="50" height="50" relative="1" as="geometry">
            <mxPoint x="670" y="1750" as="sourcePoint" />
            <mxPoint x="720" y="1700" as="targetPoint" />
          </mxGeometry>
        </mxCell>
        <mxCell id="T8m-kI0A9EKhn8hLUyai-25" value="Способы доставки заказов" style="rounded=1;whiteSpace=wrap;html=1;fillColor=#ffe6cc;strokeColor=#d79b00;" vertex="1" parent="1">
          <mxGeometry x="870" y="1210" width="170" height="80" as="geometry" />
        </mxCell>
        <mxCell id="T8m-kI0A9EKhn8hLUyai-26" value="Пешком" style="rounded=1;whiteSpace=wrap;html=1;fillColor=#ffe6cc;strokeColor=#d79b00;" vertex="1" parent="1">
          <mxGeometry x="1280" y="1050" width="120" height="60" as="geometry" />
        </mxCell>
        <mxCell id="T8m-kI0A9EKhn8hLUyai-27" value="Аренда самоката" style="rounded=1;whiteSpace=wrap;html=1;fillColor=#ffe6cc;strokeColor=#d79b00;" vertex="1" parent="1">
          <mxGeometry x="1280" y="1160" width="120" height="60" as="geometry" />
        </mxCell>
        <mxCell id="T8m-kI0A9EKhn8hLUyai-28" value="Аренда велосипеда" style="rounded=1;whiteSpace=wrap;html=1;fillColor=#ffe6cc;strokeColor=#d79b00;" vertex="1" parent="1">
          <mxGeometry x="1280" y="1270" width="120" height="60" as="geometry" />
        </mxCell>
        <mxCell id="T8m-kI0A9EKhn8hLUyai-29" value="Автомобиль" style="rounded=1;whiteSpace=wrap;html=1;fillColor=#ffe6cc;strokeColor=#d79b00;" vertex="1" parent="1">
          <mxGeometry x="1280" y="1390" width="120" height="60" as="geometry" />
        </mxCell>
        <mxCell id="T8m-kI0A9EKhn8hLUyai-30" value="" style="endArrow=classic;html=1;rounded=0;entryX=0;entryY=0.5;entryDx=0;entryDy=0;exitX=1;exitY=0.5;exitDx=0;exitDy=0;fillColor=#ffe6cc;strokeColor=#d79b00;" edge="1" parent="1" source="T8m-kI0A9EKhn8hLUyai-25" target="T8m-kI0A9EKhn8hLUyai-26">
          <mxGeometry width="50" height="50" relative="1" as="geometry">
            <mxPoint x="1050" y="1340" as="sourcePoint" />
            <mxPoint x="1100" y="1290" as="targetPoint" />
          </mxGeometry>
        </mxCell>
        <mxCell id="T8m-kI0A9EKhn8hLUyai-31" value="" style="endArrow=classic;html=1;rounded=0;entryX=0;entryY=0.5;entryDx=0;entryDy=0;exitX=1;exitY=0.5;exitDx=0;exitDy=0;fillColor=#ffe6cc;strokeColor=#d79b00;" edge="1" parent="1" source="T8m-kI0A9EKhn8hLUyai-25" target="T8m-kI0A9EKhn8hLUyai-27">
          <mxGeometry width="50" height="50" relative="1" as="geometry">
            <mxPoint x="1050" y="1340" as="sourcePoint" />
            <mxPoint x="1100" y="1290" as="targetPoint" />
          </mxGeometry>
        </mxCell>
        <mxCell id="T8m-kI0A9EKhn8hLUyai-32" value="" style="endArrow=classic;html=1;rounded=0;entryX=0;entryY=0.5;entryDx=0;entryDy=0;exitX=1;exitY=0.5;exitDx=0;exitDy=0;fillColor=#ffe6cc;strokeColor=#d79b00;" edge="1" parent="1" source="T8m-kI0A9EKhn8hLUyai-25" target="T8m-kI0A9EKhn8hLUyai-28">
          <mxGeometry width="50" height="50" relative="1" as="geometry">
            <mxPoint x="1050" y="1340" as="sourcePoint" />
            <mxPoint x="1100" y="1290" as="targetPoint" />
          </mxGeometry>
        </mxCell>
        <mxCell id="T8m-kI0A9EKhn8hLUyai-33" value="" style="endArrow=classic;html=1;rounded=0;entryX=0;entryY=0.5;entryDx=0;entryDy=0;exitX=1;exitY=0.5;exitDx=0;exitDy=0;fillColor=#ffe6cc;strokeColor=#d79b00;" edge="1" parent="1" source="T8m-kI0A9EKhn8hLUyai-25" target="T8m-kI0A9EKhn8hLUyai-29">
          <mxGeometry width="50" height="50" relative="1" as="geometry">
            <mxPoint x="1050" y="1340" as="sourcePoint" />
            <mxPoint x="1100" y="1290" as="targetPoint" />
          </mxGeometry>
        </mxCell>
        <mxCell id="T8m-kI0A9EKhn8hLUyai-34" value="Скидки для курьеров" style="rounded=1;whiteSpace=wrap;html=1;fillColor=#ffe6cc;strokeColor=#d79b00;" vertex="1" parent="1">
          <mxGeometry x="1610" y="1260" width="150" height="80" as="geometry" />
        </mxCell>
        <mxCell id="T8m-kI0A9EKhn8hLUyai-35" value="" style="endArrow=classic;html=1;rounded=0;exitX=1;exitY=0.5;exitDx=0;exitDy=0;entryX=0;entryY=0.5;entryDx=0;entryDy=0;fillColor=#ffe6cc;strokeColor=#d79b00;" edge="1" parent="1" source="T8m-kI0A9EKhn8hLUyai-28" target="T8m-kI0A9EKhn8hLUyai-34">
          <mxGeometry width="50" height="50" relative="1" as="geometry">
            <mxPoint x="1690" y="1340" as="sourcePoint" />
            <mxPoint x="1740" y="1290" as="targetPoint" />
          </mxGeometry>
        </mxCell>
        <mxCell id="T8m-kI0A9EKhn8hLUyai-36" value="" style="endArrow=classic;html=1;rounded=0;exitX=1;exitY=0.5;exitDx=0;exitDy=0;entryX=0;entryY=0.5;entryDx=0;entryDy=0;fillColor=#ffe6cc;strokeColor=#d79b00;" edge="1" parent="1" source="T8m-kI0A9EKhn8hLUyai-27" target="T8m-kI0A9EKhn8hLUyai-34">
          <mxGeometry width="50" height="50" relative="1" as="geometry">
            <mxPoint x="1690" y="1340" as="sourcePoint" />
            <mxPoint x="1740" y="1290" as="targetPoint" />
          </mxGeometry>
        </mxCell>
        <mxCell id="T8m-kI0A9EKhn8hLUyai-37" value="" style="endArrow=classic;html=1;rounded=0;exitX=1;exitY=0.5;exitDx=0;exitDy=0;entryX=0;entryY=0.5;entryDx=0;entryDy=0;fillColor=#ffe6cc;strokeColor=#d79b00;" edge="1" parent="1" source="T8m-kI0A9EKhn8hLUyai-29" target="T8m-kI0A9EKhn8hLUyai-34">
          <mxGeometry width="50" height="50" relative="1" as="geometry">
            <mxPoint x="1690" y="1340" as="sourcePoint" />
            <mxPoint x="1740" y="1290" as="targetPoint" />
          </mxGeometry>
        </mxCell>
        <mxCell id="T8m-kI0A9EKhn8hLUyai-38" value="Скидка 1.5р / км" style="rounded=1;whiteSpace=wrap;html=1;fillColor=#ffe6cc;strokeColor=#d79b00;" vertex="1" parent="1">
          <mxGeometry x="1900" y="1270" width="120" height="60" as="geometry" />
        </mxCell>
        <mxCell id="T8m-kI0A9EKhn8hLUyai-39" value="Скидка 10р / км (?)" style="rounded=1;whiteSpace=wrap;html=1;fillColor=#ffe6cc;strokeColor=#d79b00;" vertex="1" parent="1">
          <mxGeometry x="1900" y="1390" width="120" height="60" as="geometry" />
        </mxCell>
        <mxCell id="T8m-kI0A9EKhn8hLUyai-40" value="Скидка 2р (3.5р?) / км" style="rounded=1;whiteSpace=wrap;html=1;fillColor=#ffe6cc;strokeColor=#d79b00;" vertex="1" parent="1">
          <mxGeometry x="1900" y="1160" width="130" height="60" as="geometry" />
        </mxCell>
        <mxCell id="T8m-kI0A9EKhn8hLUyai-41" value="" style="endArrow=none;dashed=1;html=1;dashPattern=1 3;strokeWidth=2;rounded=0;exitX=1;exitY=0.5;exitDx=0;exitDy=0;entryX=0;entryY=0.5;entryDx=0;entryDy=0;fillColor=#ffe6cc;strokeColor=#d79b00;" edge="1" parent="1" source="T8m-kI0A9EKhn8hLUyai-27" target="T8m-kI0A9EKhn8hLUyai-40">
          <mxGeometry width="50" height="50" relative="1" as="geometry">
            <mxPoint x="1690" y="1340" as="sourcePoint" />
            <mxPoint x="1740" y="1290" as="targetPoint" />
          </mxGeometry>
        </mxCell>
        <mxCell id="T8m-kI0A9EKhn8hLUyai-42" value="" style="endArrow=none;dashed=1;html=1;dashPattern=1 3;strokeWidth=2;rounded=0;exitX=1;exitY=0.5;exitDx=0;exitDy=0;entryX=0;entryY=0.5;entryDx=0;entryDy=0;fillColor=#ffe6cc;strokeColor=#d79b00;" edge="1" parent="1" source="T8m-kI0A9EKhn8hLUyai-29" target="T8m-kI0A9EKhn8hLUyai-39">
          <mxGeometry width="50" height="50" relative="1" as="geometry">
            <mxPoint x="1690" y="1340" as="sourcePoint" />
            <mxPoint x="1740" y="1290" as="targetPoint" />
          </mxGeometry>
        </mxCell>
        <mxCell id="T8m-kI0A9EKhn8hLUyai-44" value="Бонус за километраж" style="rounded=1;whiteSpace=wrap;html=1;fillColor=#ffe6cc;strokeColor=#d79b00;" vertex="1" parent="1">
          <mxGeometry x="770" y="830" width="120" height="60" as="geometry" />
        </mxCell>
        <mxCell id="T8m-kI0A9EKhn8hLUyai-45" value="По формуле" style="rounded=1;whiteSpace=wrap;html=1;fillColor=#ffe6cc;strokeColor=#d79b00;" vertex="1" parent="1">
          <mxGeometry x="1060" y="830" width="120" height="60" as="geometry" />
        </mxCell>
        <mxCell id="T8m-kI0A9EKhn8hLUyai-46" value="" style="endArrow=classic;html=1;rounded=0;exitX=1;exitY=0.5;exitDx=0;exitDy=0;entryX=0;entryY=0.5;entryDx=0;entryDy=0;fillColor=#ffe6cc;strokeColor=#d79b00;" edge="1" parent="1" source="T8m-kI0A9EKhn8hLUyai-44" target="T8m-kI0A9EKhn8hLUyai-45">
          <mxGeometry width="50" height="50" relative="1" as="geometry">
            <mxPoint x="1080" y="850" as="sourcePoint" />
            <mxPoint x="1130" y="800" as="targetPoint" />
          </mxGeometry>
        </mxCell>
        <mxCell id="T8m-kI0A9EKhn8hLUyai-47" value="&lt;font style=&quot;font-size: 18px;&quot;&gt;&lt;span class=&quot;notion-enable-hover&quot; spellcheck=&quot;false&quot; data-token-index=&quot;0&quot; style=&quot;font-family: SFMono-Regular, Menlo, Consolas, &amp;quot;PT Mono&amp;quot;, &amp;quot;Liberation Mono&amp;quot;, Courier, monospace; line-height: normal; background: rgba(135, 131, 120, 0.15); color: rgb(235, 87, 87); border-radius: 4px; padding: 0.2em 0.4em;&quot;&gt;L * (1 + L * 2)&lt;/span&gt;&lt;br&gt;&lt;/font&gt;" style="rounded=1;whiteSpace=wrap;html=1;fillColor=#f5f5f5;strokeColor=#666666;fontColor=#333333;" vertex="1" parent="1">
          <mxGeometry x="1580" y="810" width="210" height="100" as="geometry" />
        </mxCell>
        <mxCell id="T8m-kI0A9EKhn8hLUyai-48" value="" style="endArrow=classic;html=1;rounded=0;exitX=1;exitY=0.5;exitDx=0;exitDy=0;entryX=0;entryY=0.5;entryDx=0;entryDy=0;fillColor=#ffe6cc;strokeColor=#d79b00;" edge="1" parent="1" source="T8m-kI0A9EKhn8hLUyai-45" target="T8m-kI0A9EKhn8hLUyai-51">
          <mxGeometry width="50" height="50" relative="1" as="geometry">
            <mxPoint x="1080" y="1010" as="sourcePoint" />
            <mxPoint x="1210" y="940" as="targetPoint" />
          </mxGeometry>
        </mxCell>
        <mxCell id="T8m-kI0A9EKhn8hLUyai-49" value="&lt;span style=&quot;color: rgb(235, 87, 87); font-family: SFMono-Regular, Menlo, Consolas, &amp;quot;PT Mono&amp;quot;, &amp;quot;Liberation Mono&amp;quot;, Courier, monospace; font-size: 20px; background-color: rgba(135, 131, 120, 0.15);&quot;&gt;L&lt;/span&gt;&amp;nbsp;- длина маршрута" style="rounded=1;whiteSpace=wrap;html=1;fillColor=#ffe6cc;strokeColor=#d79b00;" vertex="1" parent="1">
          <mxGeometry x="2065" y="760" width="130" height="60" as="geometry" />
        </mxCell>
        <mxCell id="T8m-kI0A9EKhn8hLUyai-50" value="" style="endArrow=classic;html=1;rounded=0;entryX=0;entryY=0.5;entryDx=0;entryDy=0;exitX=1;exitY=0.5;exitDx=0;exitDy=0;fillColor=#ffe6cc;strokeColor=#d79b00;" edge="1" parent="1" source="T8m-kI0A9EKhn8hLUyai-47" target="T8m-kI0A9EKhn8hLUyai-49">
          <mxGeometry width="50" height="50" relative="1" as="geometry">
            <mxPoint x="1850" y="950" as="sourcePoint" />
            <mxPoint x="1900" y="900" as="targetPoint" />
          </mxGeometry>
        </mxCell>
        <mxCell id="T8m-kI0A9EKhn8hLUyai-51" value="Пешком" style="rounded=1;whiteSpace=wrap;html=1;fillColor=#ffe6cc;strokeColor=#d79b00;" vertex="1" parent="1">
          <mxGeometry x="1330" y="830" width="120" height="60" as="geometry" />
        </mxCell>
        <mxCell id="T8m-kI0A9EKhn8hLUyai-52" value="" style="endArrow=classic;html=1;rounded=0;exitX=1;exitY=0.5;exitDx=0;exitDy=0;entryX=0;entryY=0.5;entryDx=0;entryDy=0;fillColor=#ffe6cc;strokeColor=#d79b00;" edge="1" parent="1" source="T8m-kI0A9EKhn8hLUyai-51" target="T8m-kI0A9EKhn8hLUyai-47">
          <mxGeometry width="50" height="50" relative="1" as="geometry">
            <mxPoint x="1450" y="930" as="sourcePoint" />
            <mxPoint x="1500" y="880" as="targetPoint" />
          </mxGeometry>
        </mxCell>
        <mxCell id="T8m-kI0A9EKhn8hLUyai-53" value="На транспорте" style="rounded=1;whiteSpace=wrap;html=1;fillColor=#ffe6cc;strokeColor=#d79b00;" vertex="1" parent="1">
          <mxGeometry x="1330" y="620" width="120" height="60" as="geometry" />
        </mxCell>
        <mxCell id="T8m-kI0A9EKhn8hLUyai-54" value="" style="endArrow=classic;html=1;rounded=0;exitX=1;exitY=0.5;exitDx=0;exitDy=0;entryX=0;entryY=0.5;entryDx=0;entryDy=0;fillColor=#ffe6cc;strokeColor=#d79b00;" edge="1" parent="1" source="T8m-kI0A9EKhn8hLUyai-45" target="T8m-kI0A9EKhn8hLUyai-53">
          <mxGeometry width="50" height="50" relative="1" as="geometry">
            <mxPoint x="1450" y="930" as="sourcePoint" />
            <mxPoint x="1500" y="880" as="targetPoint" />
          </mxGeometry>
        </mxCell>
        <mxCell id="T8m-kI0A9EKhn8hLUyai-55" value="&lt;div&gt;&lt;span style=&quot;background-color: rgba(135, 131, 120, 0.15); color: rgb(235, 87, 87); font-family: SFMono-Regular, Menlo, Consolas, &amp;quot;PT Mono&amp;quot;, &amp;quot;Liberation Mono&amp;quot;, Courier, monospace; font-size: 20px;&quot;&gt;L * (1 + L * 2) - L * Cost&lt;/span&gt;&lt;/div&gt;&lt;div&gt;&lt;span style=&quot;background-color: rgba(135, 131, 120, 0.15); color: rgb(235, 87, 87); font-family: SFMono-Regular, Menlo, Consolas, &amp;quot;PT Mono&amp;quot;, &amp;quot;Liberation Mono&amp;quot;, Courier, monospace; font-size: 20px;&quot;&gt;&lt;br&gt;&lt;/span&gt;&lt;/div&gt;&lt;div&gt;Или&lt;/div&gt;&lt;div&gt;&lt;br&gt;&lt;span class=&quot;notion-enable-hover&quot; spellcheck=&quot;false&quot; data-token-index=&quot;0&quot; style=&quot;font-family: SFMono-Regular, Menlo, Consolas, &amp;quot;PT Mono&amp;quot;, &amp;quot;Liberation Mono&amp;quot;, Courier, monospace; line-height: normal; background: rgba(135, 131, 120, 0.15); color: rgb(235, 87, 87); border-radius: 4px; font-size: 20px; padding: 0.2em 0.4em;&quot;&gt;L * (1 + 2L) - L * Cost&lt;/span&gt;&lt;br&gt;&lt;/div&gt;" style="rounded=1;whiteSpace=wrap;html=1;" vertex="1" parent="1">
          <mxGeometry x="1515" y="585" width="335" height="125" as="geometry" />
        </mxCell>
        <mxCell id="T8m-kI0A9EKhn8hLUyai-56" value="" style="endArrow=classic;html=1;rounded=0;exitX=1;exitY=0.5;exitDx=0;exitDy=0;entryX=0;entryY=0.5;entryDx=0;entryDy=0;fillColor=#ffe6cc;strokeColor=#d79b00;" edge="1" parent="1" source="T8m-kI0A9EKhn8hLUyai-53" target="T8m-kI0A9EKhn8hLUyai-55">
          <mxGeometry width="50" height="50" relative="1" as="geometry">
            <mxPoint x="1450" y="640" as="sourcePoint" />
            <mxPoint x="1500" y="590" as="targetPoint" />
          </mxGeometry>
        </mxCell>
        <mxCell id="T8m-kI0A9EKhn8hLUyai-57" value="" style="endArrow=classic;html=1;rounded=0;exitX=1;exitY=0.5;exitDx=0;exitDy=0;entryX=0;entryY=0.5;entryDx=0;entryDy=0;fillColor=#ffe6cc;strokeColor=#d79b00;" edge="1" parent="1" source="T8m-kI0A9EKhn8hLUyai-55" target="T8m-kI0A9EKhn8hLUyai-49">
          <mxGeometry width="50" height="50" relative="1" as="geometry">
            <mxPoint x="1450" y="640" as="sourcePoint" />
            <mxPoint x="1500" y="590" as="targetPoint" />
          </mxGeometry>
        </mxCell>
        <mxCell id="T8m-kI0A9EKhn8hLUyai-58" value="&lt;span style=&quot;color: rgb(235, 87, 87); font-family: SFMono-Regular, Menlo, Consolas, &amp;quot;PT Mono&amp;quot;, &amp;quot;Liberation Mono&amp;quot;, Courier, monospace; font-size: 20px; background-color: rgba(135, 131, 120, 0.15);&quot;&gt;Cost&lt;/span&gt;&amp;nbsp;- стоимость километра на выбранном транспорте" style="rounded=1;whiteSpace=wrap;html=1;fillColor=#ffe6cc;strokeColor=#d79b00;" vertex="1" parent="1">
          <mxGeometry x="2040" y="600" width="180" height="100" as="geometry" />
        </mxCell>
        <mxCell id="T8m-kI0A9EKhn8hLUyai-59" value="" style="endArrow=classic;html=1;rounded=0;exitX=1;exitY=0.5;exitDx=0;exitDy=0;entryX=0;entryY=0.5;entryDx=0;entryDy=0;fillColor=#ffe6cc;strokeColor=#d79b00;" edge="1" parent="1" source="T8m-kI0A9EKhn8hLUyai-55" target="T8m-kI0A9EKhn8hLUyai-58">
          <mxGeometry width="50" height="50" relative="1" as="geometry">
            <mxPoint x="1450" y="640" as="sourcePoint" />
            <mxPoint x="1500" y="590" as="targetPoint" />
          </mxGeometry>
        </mxCell>
        <mxCell id="T8m-kI0A9EKhn8hLUyai-60" value="Выводить сумму выгоды следует третьей строкой, под временем и стоимостью поездки" style="rounded=1;whiteSpace=wrap;html=1;fillColor=#ffe6cc;strokeColor=#d79b00;" vertex="1" parent="1">
          <mxGeometry x="1130" y="410" width="220" height="70" as="geometry" />
        </mxCell>
        <mxCell id="T8m-kI0A9EKhn8hLUyai-62" value="" style="endArrow=classic;html=1;rounded=0;exitX=0.5;exitY=0;exitDx=0;exitDy=0;entryX=0.5;entryY=1;entryDx=0;entryDy=0;fillColor=#ffe6cc;strokeColor=#d79b00;" edge="1" parent="1" source="T8m-kI0A9EKhn8hLUyai-53" target="T8m-kI0A9EKhn8hLUyai-60">
          <mxGeometry width="50" height="50" relative="1" as="geometry">
            <mxPoint x="1360" y="690" as="sourcePoint" />
            <mxPoint x="1410" y="640" as="targetPoint" />
          </mxGeometry>
        </mxCell>
        <mxCell id="T8m-kI0A9EKhn8hLUyai-63" value="размер выгоды может быть отрицательным" style="rounded=1;whiteSpace=wrap;html=1;fillColor=#ffe6cc;strokeColor=#d79b00;" vertex="1" parent="1">
          <mxGeometry x="1460" y="410" width="170" height="70" as="geometry" />
        </mxCell>
        <mxCell id="T8m-kI0A9EKhn8hLUyai-64" value="" style="endArrow=classic;html=1;rounded=0;entryX=0.5;entryY=1;entryDx=0;entryDy=0;fillColor=#ffe6cc;strokeColor=#d79b00;" edge="1" parent="1" target="T8m-kI0A9EKhn8hLUyai-63">
          <mxGeometry width="50" height="50" relative="1" as="geometry">
            <mxPoint x="1390" y="620" as="sourcePoint" />
            <mxPoint x="1410" y="640" as="targetPoint" />
          </mxGeometry>
        </mxCell>
        <mxCell id="T8m-kI0A9EKhn8hLUyai-65" value="&lt;font style=&quot;font-size: 15px;&quot;&gt;&lt;span class=&quot;notion-enable-hover&quot; spellcheck=&quot;false&quot; data-token-index=&quot;0&quot; style=&quot;font-family: SFMono-Regular, Menlo, Consolas, &amp;quot;PT Mono&amp;quot;, &amp;quot;Liberation Mono&amp;quot;, Courier, monospace; line-height: normal; background: rgba(135, 131, 120, 0.15); color: rgb(235, 87, 87); border-radius: 4px; padding: 0.2em 0.4em;&quot;&gt;Выгода &amp;lt;Bonus&amp;gt; р&lt;/span&gt;&lt;br&gt;&lt;/font&gt;" style="rounded=1;whiteSpace=wrap;html=1;fillColor=#ffe6cc;strokeColor=#d79b00;" vertex="1" parent="1">
          <mxGeometry x="1160" y="260" width="160" height="70" as="geometry" />
        </mxCell>
        <mxCell id="T8m-kI0A9EKhn8hLUyai-66" value="" style="endArrow=classic;html=1;rounded=0;entryX=0.5;entryY=1;entryDx=0;entryDy=0;exitX=0.5;exitY=0;exitDx=0;exitDy=0;fillColor=#ffe6cc;strokeColor=#d79b00;" edge="1" parent="1" source="T8m-kI0A9EKhn8hLUyai-60" target="T8m-kI0A9EKhn8hLUyai-65">
          <mxGeometry width="50" height="50" relative="1" as="geometry">
            <mxPoint x="1250" y="660" as="sourcePoint" />
            <mxPoint x="1300" y="610" as="targetPoint" />
          </mxGeometry>
        </mxCell>
      </root>
    </mxGraphModel>
  </diagram>
</mxfile>
